<svg width="16" height="16" viewBox="0 0 16 16" fill="none" xmlns="http://www.w3.org/2000/svg">
<path d="M15.0176 5.47111L13.9232 1.82311C13.7644 1.29198 13.4591 0.829956 13.0505 0.502674C12.6419 0.175392 12.1509 -0.000496183 11.6472 1.05136e-06H4.3528C3.84911 -0.000496183 3.35809 0.175392 2.94951 0.502674C2.54092 0.829956 2.23556 1.29198 2.0768 1.82311L0.9824 5.47111C0.691378 5.60641 0.442848 5.83429 0.268053 6.12609C0.0932585 6.41789 -3.8472e-07 6.76059 0 7.11111V11.5556C0 12.2116 0.3232 12.7787 0.8 13.0871V15.1111C0.8 15.3469 0.884285 15.573 1.03431 15.7397C1.18434 15.9064 1.38783 16 1.6 16H2.4C2.61217 16 2.81566 15.9064 2.96569 15.7397C3.11571 15.573 3.2 15.3469 3.2 15.1111V13.3333H12.8V15.1111C12.8 15.3469 12.8843 15.573 13.0343 15.7397C13.1843 15.9064 13.3878 16 13.6 16H14.4C14.6122 16 14.8157 15.9064 14.9657 15.7397C15.1157 15.573 15.2 15.3469 15.2 15.1111V13.0871C15.4427 12.9325 15.6445 12.7094 15.7849 12.4406C15.9254 12.1717 15.9995 11.8664 16 11.5556V7.11111C16 6.76059 15.9067 6.41789 15.7319 6.12609C15.5572 5.83429 15.3086 5.60641 15.0176 5.47111ZM4.3528 1.77778H11.6464C11.9912 1.77778 12.2968 2.02133 12.4056 2.38578L13.2904 5.33333H2.7096L3.5936 2.38578C3.64668 2.20871 3.74857 2.05469 3.88484 1.94556C4.02111 1.83644 4.18483 1.77773 4.3528 1.77778ZM2.8 10.6667C2.64236 10.6666 2.48628 10.6321 2.34066 10.565C2.19504 10.4979 2.06274 10.3996 1.95131 10.2757C1.83988 10.1518 1.7515 10.0047 1.69122 9.84289C1.63094 9.68105 1.59995 9.5076 1.6 9.33244C1.60005 9.15729 1.63115 8.98386 1.69153 8.82206C1.7519 8.66026 1.84037 8.51326 1.95187 8.38945C2.06338 8.26564 2.19574 8.16744 2.3414 8.10047C2.48706 8.03349 2.64316 7.99905 2.8008 7.99911C3.11917 7.99923 3.42445 8.13986 3.64949 8.39008C3.87454 8.6403 4.00091 8.97959 4.0008 9.33333C4.00069 9.68707 3.87412 10.0263 3.64893 10.2763C3.42373 10.5264 3.11837 10.6668 2.8 10.6667ZM13.2 10.6667C13.0424 10.6666 12.8863 10.6321 12.7407 10.565C12.595 10.4979 12.4627 10.3996 12.3513 10.2757C12.2399 10.1518 12.1515 10.0047 12.0912 9.84289C12.0309 9.68105 11.9999 9.5076 12 9.33244C12.0001 9.15729 12.0312 8.98386 12.0915 8.82206C12.1519 8.66026 12.2404 8.51326 12.3519 8.38945C12.4634 8.26564 12.5957 8.16744 12.7414 8.10047C12.8871 8.03349 13.0432 7.99905 13.2008 7.99911C13.5192 7.99923 13.8244 8.13986 14.0495 8.39008C14.2745 8.6403 14.4009 8.97959 14.4008 9.33333C14.4007 9.68707 14.2741 10.0263 14.0489 10.2763C13.8237 10.5264 13.5184 10.6668 13.2 10.6667Z" fill="#4c4c4c"/>
</svg>
