<svg width="16" height="18" viewBox="0 0 16 18" fill="none" xmlns="http://www.w3.org/2000/svg">
<path d="M15.2 17.2C14.376 17.2 13.552 17 12.8 16.6C11.288 17.4 9.512 17.4 8 16.6C6.488 17.4 4.712 17.4 3.2 16.6C2.44 17 1.624 17.2 0.8 17.2H0V15.6H0.8C1.632 15.6 2.464 15.32 3.2 14.8C4.664 15.84 6.536 15.84 8 14.8C9.464 15.84 11.336 15.84 12.8 14.8C13.528 15.32 14.368 15.6 15.2 15.6H16V17.2H15.2ZM12 0C11.12 0 10.4 0.72 10.4 1.6C10.4 2.48 11.12 3.2 12 3.2C12.88 3.2 13.6 2.48 13.6 1.6C13.6 0.72 12.88 0 12 0ZM9.944 5.584L8.144 6.8L11.2 9.2V12.272C11.624 12.576 12.024 12.896 12.392 13.208C11.848 13.672 11.152 14 10.4 14C9.44 14 8.584 13.472 8 12.8C7.416 13.472 6.56 14 5.6 14C5.336 14 5.08 13.96 4.832 13.888C2.552 12.32 0.8 10.576 0.8 9.424C0.8 8.6 1.608 8.4 2.28 8.4C3.064 8.4 4.104 8.648 5.24 9.064L4.816 6.584C4.728 6.048 4.96 5.48 5.44 5.152L7.16 3.992L5.56 3.696L3.304 5.24L2.4 3.92L5.2 2L9.64 2.824C10 2.896 10.384 3.12 10.616 3.536L11.32 4.776C11.6698 5.3905 12.176 5.90145 12.7873 6.25695C13.3985 6.61244 14.0929 6.7998 14.8 6.8V8.4C13.8145 8.39867 12.8468 8.13767 11.9943 7.64331C11.1418 7.14894 10.4346 6.43866 9.944 5.584ZM6.64 7.68L6.992 9.8C7.728 10.136 8.976 10.816 9.6 11.2V10L6.64 7.68Z" fill="#4c4c4c"/>
</svg>
